# xmcd CD database file
#
# Track frame offsets:
#	150
#	18912
#	33890
#	54261
#	78918
#	98208
#	114037
#	139586
#	159678
#	172862
#
# Disc length: 2697 seconds
#
# Revision: 0
# Processed by: cddbd v1.5.1PL0 Copyright (c) Steve Scherf et al.
# Submitted via: CDex 1.51
#
DISCID=650a870a
DTITLE=32 Below - Don't Look Back
DYEAR=2004
DGENRE=Country
TTITLE0=Make a Little Noise
TTITLE1=Don't Give up on Me
TTITLE2=Quit Coming Around
TTITLE3=Watch you for Hours
TTITLE4=Let Her Be
TTITLE5=The Devil in Me
TTITLE6=Hometown
TTITLE7=Hard one to Hold
TTITLE8=Dreamer
TTITLE9=Don't Look Back
EXTD=YEAR: 2004
EXTT0=
EXTT1=
EXTT2=
EXTT3=
EXTT4=
EXTT5=
EXTT6=
EXTT7=
EXTT8=
EXTT9=
PLAYORDER=
